<svg width="26" height="26" viewBox="0 0 26 26" fill="none" xmlns="http://www.w3.org/2000/svg">
<path fill-rule="evenodd" clip-rule="evenodd" d="M11.8232 0.517685C10.3603 1.24083 9.56708 2.45462 9.56708 3.96958C9.56708 6.32949 11.0357 7.74447 13.8428 8.08948C14.5707 8.17876 15.492 8.30824 15.8903 8.37692C16.7695 8.52862 17.1708 8.1523 17.1437 7.20151C17.1335 6.8464 17.3243 6.23658 17.5676 5.84592C17.886 5.33467 18.01 4.81372 18.01 3.98594C18.01 2.45341 17.2491 1.32365 15.6883 0.53849C14.2738 -0.173139 13.232 -0.178795 11.8232 0.517685ZM15.6755 1.44747C17.3163 2.55865 17.5772 4.7202 16.2454 6.17295C15.9062 6.543 15.8866 6.66662 16.1104 7.02214C16.4866 7.61984 16.2144 7.75417 15.3273 7.40876C14.9028 7.24352 14.1319 7.10415 13.6146 7.0991C11.8348 7.08213 10.5943 5.97095 10.4328 4.24955C10.3304 3.15877 10.8596 2.21101 11.9945 1.45232C12.9516 0.812396 14.734 0.809972 15.6755 1.44747ZM11.3012 3.61508C11.0025 3.94272 10.9828 4.07098 11.1927 4.32206C11.5453 4.74343 12.1574 4.70707 12.4039 4.25036C12.5593 3.96231 12.5206 3.79324 12.2423 3.54337C11.7799 3.12827 11.7428 3.1311 11.3012 3.61508ZM13.4865 3.35996C13.3466 3.40985 13.232 3.72173 13.232 4.05321C13.232 4.59132 13.2919 4.64889 13.7919 4.59173C14.1869 4.54668 14.3706 4.39802 14.4152 4.08714C14.4819 3.62195 13.941 3.19836 13.4865 3.35996ZM15.409 3.36824C15.1451 3.42763 15.0585 3.60357 15.1035 3.98958C15.2096 4.89977 16.4748 4.79837 16.4866 3.87848C16.4907 3.5559 15.8738 3.26381 15.409 3.36824ZM1.81884 4.98239C0.47789 6.31616 -0.00404657 7.53016 2.55621e-05 9.56405C0.00307966 11.1715 0.361427 12.4435 1.38251 14.4721C2.62553 16.9417 4.05831 18.9342 6.15708 21.1121C9.6587 24.746 13.2831 26.5319 15.7944 25.861C17.7405 25.3411 19.2541 23.7657 18.7841 22.7489C18.4488 22.0231 16.0896 18.9069 15.5038 18.4161C14.7658 17.7976 14.5088 17.8351 13.041 18.7762C12.1274 19.362 11.6479 19.5537 11.3393 19.4566C11.1029 19.3822 10.1659 18.5833 9.25699 17.6814C7.93335 16.3679 7.41476 15.6657 6.65144 14.1526C6.12736 13.1137 5.69856 12.1098 5.69856 11.9217C5.69856 11.7337 6.16014 11.2305 6.72433 10.8037C8.58998 9.39215 8.58102 9.06229 6.60522 6.46019C4.19289 3.2832 3.68489 3.12645 1.81884 4.98239ZM16.9598 9.72928C16.8692 9.86825 16.7633 11.2374 16.7245 12.7721C16.6273 16.6028 16.29 16.3446 21.3934 16.3446C24.6327 16.3446 25.4767 16.2877 25.7135 16.0527C25.9446 15.8235 26.0061 15.1171 25.9995 12.7703C25.9942 10.859 25.9116 9.72625 25.7707 9.63131C25.6493 9.5497 23.6544 9.48163 21.3374 9.47981C18.1878 9.47759 17.083 9.54041 16.9598 9.72928ZM24.2267 10.3528C24.2267 10.3902 23.5927 10.8546 22.8178 11.3846L21.409 12.3483L20.0691 11.3998C19.3322 10.878 18.7294 10.4138 18.7294 10.368C18.7294 10.3223 19.9663 10.2848 21.4781 10.2848C22.9898 10.2848 24.2267 10.3155 24.2267 10.3528ZM18.8253 11.5357C19.3324 11.8902 19.7464 12.2766 19.7452 12.3942C19.7439 12.5116 19.2897 13.1076 18.7359 13.7187L17.7291 14.8297L17.7201 13.1798C17.7152 12.2722 17.6558 11.386 17.5877 11.2103C17.3976 10.7184 17.8129 10.8277 18.8253 11.5357ZM25.2448 12.8097C25.2448 13.8651 25.1849 14.7287 25.1116 14.7287C25.0383 14.7287 24.649 14.3495 24.2463 13.8859C22.8624 12.2932 22.8758 12.4025 23.9655 11.6097C24.5012 11.2198 25.0082 10.8984 25.0921 10.8958C25.176 10.893 25.2448 11.7543 25.2448 12.8097ZM21.137 13.1581C21.3339 13.3535 21.475 13.3506 21.8067 13.1452C22.1899 12.9077 22.323 12.9883 23.3195 14.0593C23.9203 14.7052 24.4161 15.3019 24.4212 15.3851C24.4263 15.4684 23.0475 15.5366 21.3573 15.5366H18.2843L19.1685 14.5107C19.655 13.9463 20.144 13.3555 20.2554 13.1977C20.5042 12.8453 20.808 12.8317 21.137 13.1581Z" fill="white"/>
</svg>
