<svg width="19" height="23" viewBox="0 0 19 23" fill="none" xmlns="http://www.w3.org/2000/svg">
<path fill-rule="evenodd" clip-rule="evenodd" d="M1.81884 1.19876C0.47789 2.53254 -0.00404657 3.74653 2.55621e-05 5.78042C0.00307966 7.3879 0.361427 8.65987 1.38251 10.6885C2.62553 13.1581 4.05831 15.1506 6.15708 17.3285C9.6587 20.9624 13.2831 22.7482 15.7944 22.0774C17.7405 21.5575 19.2541 19.9821 18.7841 18.9653C18.4488 18.2395 16.0896 15.1233 15.5038 14.6325C14.7658 14.014 14.5088 14.0515 13.041 14.9926C12.1274 15.5784 11.6479 15.7701 11.3393 15.6729C11.1029 15.5986 10.1659 14.7997 9.25699 13.8978C7.93335 12.5842 7.41476 11.8821 6.65144 10.3689C6.12736 9.33009 5.69856 8.32617 5.69856 8.13811C5.69856 7.95006 6.16014 7.44688 6.72433 7.02007C8.58998 5.60852 8.58102 5.27867 6.60522 2.67656C4.19289 -0.500419 3.68489 -0.657169 1.81884 1.19876Z" fill="#0084FF"/>
</svg>
