<svg width="25" height="22" viewBox="0 0 25 22" fill="none" xmlns="http://www.w3.org/2000/svg">
<path d="M1.51914 18.6284C0.701279 19.3708 0.701279 20.5745 1.51914 21.3169C2.337 22.0593 3.663 22.0593 4.48086 21.3169L1.51914 18.6284ZM24.8932 1.99999C24.8932 0.950053 23.9556 0.0989123 22.799 0.0989131L3.95068 0.0989127C2.79405 0.0989127 1.85642 0.950053 1.85642 1.99999C1.85642 3.04992 2.79405 3.90106 3.95068 3.90106L20.7047 3.90106L20.7047 19.1097C20.7047 20.1596 21.6424 21.0107 22.799 21.0107C23.9556 21.0107 24.8932 20.1596 24.8932 19.1097L24.8932 1.99999ZM4.48086 21.3169L24.2799 3.34425L21.3181 0.655725L1.51914 18.6284L4.48086 21.3169Z" fill="white"/>
</svg>
